<svg width="100" height="88" viewBox="0 0 100 88" fill="none" xmlns="http://www.w3.org/2000/svg">
<path d="M56.7856 12.93C57.6937 12.7847 58.3073 11.9605 58.156 11.0887C58.0038 10.2169 57.1453 9.62788 56.2371 9.77318C34.1498 13.3081 29.9149 33.249 29.8751 33.4443C29.7009 34.3122 30.2942 35.1512 31.1983 35.3176C31.3024 35.3363 31.4074 35.3465 31.5132 35.3465C32.3123 35.3457 32.9983 34.8004 33.148 34.0474C33.1847 33.8731 36.9597 16.1025 56.7856 12.93Z" fill="#0783F7"/>
<path d="M64.3554 48.619L58.034 42.5507L60.6771 40.0134L66.9969 46.0833C67.6479 46.7075 68.7025 46.7075 69.3535 46.0833L74.3533 41.2836C75.0044 40.6586 75.0044 39.6462 74.3533 39.0212L68.032 32.9529L71.0218 30.0843C71.6728 29.4594 71.6728 28.4454 71.0218 27.8204C70.3708 27.1955 69.3145 27.1955 68.6635 27.8204L65.6753 30.689L59.354 24.6206C58.7029 23.9957 57.6483 23.9957 56.9973 24.6206L51.9975 29.4203C51.3473 30.0453 51.3473 31.0577 51.9975 31.6827L58.3188 37.751L55.6757 40.2883L49.3544 34.22C48.7034 33.595 47.6487 33.595 46.9977 34.22L41.9979 39.0197C41.3477 39.6446 41.3477 40.6571 41.9979 41.282L48.3193 47.3504L45.3311 50.2189C44.6801 50.8439 44.6801 51.8579 45.3311 52.4829C45.9821 53.1078 47.0384 53.1078 47.6894 52.4829L50.6776 49.6143L56.9973 55.6826C57.6483 56.3068 58.7029 56.3068 59.354 55.6826L64.3538 50.883C64.6671 50.583 64.8428 50.176 64.8436 49.751C64.8436 49.3268 64.6679 48.919 64.3554 48.619V48.619ZM70.82 40.1509L68.1768 42.6882L63.0338 37.751L65.6769 35.2137L70.82 40.1509ZM55.5341 30.5515L58.1773 28.0142L63.3203 32.9513L60.6771 35.4887L55.5341 30.5515ZM45.5345 40.1509L48.1777 37.6135L53.3207 42.5507L50.6776 45.088L45.5345 40.1509ZM58.1773 52.2876L53.0342 47.3504L55.6774 44.813L60.8204 49.7502L58.1773 52.2876Z" fill="#0783F7"/>
<path d="M75.3298 58.2184C72.3099 61.0682 68.5764 63.1235 64.4888 64.186C63.6579 64.3602 63.0964 65.107 63.1868 65.9187C63.2771 66.7311 63.99 67.3475 64.8403 67.349C64.9583 67.3482 65.0763 67.3357 65.1919 67.3123C69.915 66.1374 74.228 63.7797 77.6914 60.4807C78.3424 59.8542 78.3408 58.841 77.6889 58.216C77.0371 57.5911 75.9808 57.5926 75.3298 58.2184V58.2184Z" fill="#0783F7"/>
<path d="M84.4545 51.7227C83.8035 51.0985 82.7488 51.0985 82.0978 51.7227L80.3311 53.4187C79.6801 54.0437 79.6801 55.0569 80.3303 55.6818C80.9813 56.3068 82.0368 56.3076 82.6878 55.6826L84.4545 53.9866C84.7678 53.6866 84.9436 53.2796 84.9436 52.8547C84.9436 52.4297 84.7678 52.0227 84.4545 51.7227V51.7227Z" fill="#0783F7"/>
<path d="M98.1257 9.3638C96.962 5.74842 94.0138 2.91814 90.2476 1.80102C89.464 1.61276 88.6112 1.42996 87.6973 1.25887C87.3645 1.19638 87.0308 1.14247 86.698 1.0831C86.3643 1.02373 86.0543 0.977642 85.7247 0.922958C80.1846 0.0730141 74.5647 -0.191031 68.9652 0.13551C68.3215 0.170664 67.6745 0.21363 67.0235 0.263626C66.5914 0.29878 66.1633 0.335497 65.7321 0.377682C64.6367 0.481581 63.5373 0.601104 62.4306 0.755L62.3956 0.764375C51.9558 2.24631 41.3792 6.01559 33.6647 13.4213C20.0886 26.4541 18.3406 51.0189 19.4522 65.1617C19.4604 65.2757 19.4685 65.3859 19.4774 65.496C19.5206 66.0101 19.5621 66.5186 19.6101 67.0037C19.7037 67.9474 19.794 68.6833 19.8591 69.1552C20.445 73.4892 25.3301 76.3976 29.6284 76.9335C30.0947 76.9929 30.7831 77.0703 31.6286 77.1499C34.773 77.4538 37.9321 77.6046 41.0928 77.6007C55.6226 77.6007 74.6379 74.6048 86.0177 63.6821C95.4387 54.6381 99.1836 41.5007 99.8737 29.5133V29.4828C100.228 23.6113 99.8363 17.7203 98.7068 11.9394C98.5408 11.0457 98.3422 10.1911 98.1257 9.3638V9.3638ZM94.8926 10.1419C95.0375 10.6965 95.1677 11.2777 95.2938 11.8613C96.4656 17.7781 96.875 23.8105 96.512 29.8234C84.1086 23.6636 73.4808 14.6603 65.5701 3.61262L65.8183 3.58684C66.7851 3.49232 67.7453 3.4267 68.6966 3.36264C69.3403 3.32592 69.975 3.30171 70.6065 3.2814L71.2169 3.26187C71.9167 3.24468 72.6117 3.23296 73.2936 3.23296C77.6383 3.22437 81.9757 3.57044 86.2594 4.26805L86.5539 4.31805C86.9576 4.38835 87.3344 4.46022 87.7046 4.53366C88.306 4.65396 88.9009 4.77583 89.4371 4.90473C92.0225 5.71483 94.0488 7.66001 94.8926 10.1419V10.1419ZM23.1654 68.7427C22.4501 62.5767 22.3557 56.3591 22.8839 50.1759C34.7323 55.0459 44.7197 63.3173 51.4756 73.8541C45.4415 74.4736 39.3594 74.5517 33.3099 74.0892C32.23 73.99 31.1632 73.9072 30.0548 73.7689C27.0203 73.3822 23.5186 71.3613 23.1654 68.7427V68.7427ZM83.6626 61.4182C79.3179 65.5874 69.5714 71.2417 55.1474 73.5103C47.8487 61.49 36.6219 52.118 23.2086 46.848C24.4984 35.6839 27.9984 23.3902 36.023 15.6853C43.211 8.78494 52.7207 5.4461 61.8902 4.06962C70.46 16.5243 82.3036 26.5861 96.2223 33.2396C95.162 43.0225 91.7678 53.6398 83.6626 61.4182Z" fill="#0783F7"/>
<path d="M1.6666 88C2.10848 88 2.53245 87.8312 2.84413 87.5313L16.1769 74.7321C16.8092 74.1048 16.8003 73.1064 16.1574 72.4893C15.5145 71.8721 14.4745 71.8636 13.821 72.4705L0.488266 85.2697C0.011398 85.7267 -0.131011 86.4149 0.126953 87.0126C0.384918 87.6102 0.991989 88 1.6666 88Z" fill="#0783F7"/>
<path d="M14.6543 85.1314C15.3045 85.7564 16.3599 85.7564 17.0101 85.1314L22.8432 79.5318C23.4755 78.9045 23.4666 77.9061 22.8237 77.289C22.1808 76.6718 21.1408 76.6632 20.4874 77.2702L14.6543 82.8699C14.0033 83.494 14.0033 84.5073 14.6543 85.1314Z" fill="#0783F7"/>
</svg>
