<svg width="100" height="88" viewBox="0 0 100 88" fill="none" xmlns="http://www.w3.org/2000/svg">
<path d="M93.3225 42.1145V27.2381C93.3225 27.1225 93.3144 27.0069 93.2997 26.8923C93.1557 25.7966 89.2838 0 50 0C10.717 0 6.84428 25.7966 6.70109 26.8923C6.68563 27.0069 6.67831 27.1225 6.67749 27.2381V42.1145C2.67703 42.8511 -0.214503 47.3055 0.0124906 52.381C0.0124906 53.538 0.758561 54.4762 1.67874 54.4762C4.31155 54.469 6.8337 55.8072 8.66511 58.1848C9.09551 58.6309 9.54217 59.0861 10.01 59.5342V62.8571C10.0173 64.3324 10.3371 65.779 10.9367 67.0476H8.34374C7.42356 67.0476 6.67749 67.9858 6.67749 69.1429V81.7143C6.67749 85.1856 8.9157 88 11.6762 88H88.3238C91.0843 88 93.3225 85.1856 93.3225 81.7143V69.1429C93.3225 67.9858 92.5764 67.0476 91.6563 67.0476H89.0633C89.6638 65.779 89.9835 64.3324 89.99 62.8571V59.526C90.4554 59.082 90.8996 58.6288 91.3235 58.1869C93.159 55.8072 95.6852 54.468 98.3213 54.4762C99.2414 54.4762 99.9875 53.538 99.9875 52.381C100.215 47.3055 97.323 42.8511 93.3225 42.1145V42.1145ZM10.01 27.4478C10.3851 25.239 14.8924 4.19048 50 4.19048C85.158 4.19048 89.6288 25.2984 89.99 27.4478V41.9048H10.01V27.4478ZM89.99 81.7143C89.99 82.8714 89.2439 83.8095 88.3238 83.8095H11.6762C10.7561 83.8095 10.01 82.8714 10.01 81.7143V71.2381H89.99V81.7143ZM86.6575 62.8571C86.6575 65.1713 85.1654 67.0476 83.325 67.0476H36.67V62.8571H33.3375V67.0476H16.675C14.8346 67.0476 13.3425 65.1713 13.3425 62.8571V61.9169C14.7638 62.5635 16.2666 62.8827 17.7782 62.8571C21.188 62.8776 24.4652 61.1977 26.893 58.1869C28.7285 55.8154 31.249 54.4772 33.8818 54.4772C36.5138 54.4772 39.0343 55.8154 40.8706 58.1869C45.9385 64.4163 54.0346 64.4163 59.1025 58.1869C60.6866 56.1765 62.7629 54.8946 64.9963 54.5478V58.6667H68.3288V54.7698C70.1195 55.3816 71.7573 56.5581 73.0859 58.1869C75.5161 61.1988 78.7957 62.8776 82.2071 62.8571C83.7237 62.8837 85.2321 62.5625 86.6575 61.9098V62.8571ZM89.2 54.956C87.3621 57.3316 84.8383 58.6718 82.2022 58.6718C79.5662 58.6718 77.0424 57.3316 75.2037 54.956C70.1341 48.7276 62.038 48.7276 56.9685 54.956C55.1322 57.3275 52.6108 58.6656 49.9788 58.6656C47.346 58.6656 44.8247 57.3275 42.9884 54.956C37.9205 48.7286 29.826 48.7286 24.7581 54.956C22.9226 57.3285 20.4029 58.6667 17.7709 58.6667C15.1389 58.6667 12.6184 57.3285 10.7829 54.956C8.79448 52.5313 6.25279 50.9476 3.51341 50.4259C4.14639 47.7639 6.13564 45.9796 8.34374 46.0952H17.6513L15.4969 48.8043C15.0641 49.3302 14.89 50.1097 15.0429 50.8423C15.1951 51.5748 15.6499 52.1467 16.2324 52.339C16.8149 52.5303 17.4349 52.3114 17.8531 51.7671L22.3637 46.0952H48.3338V52.381C48.3338 53.538 49.0798 54.4762 50 54.4762C50.9202 54.4762 51.6663 53.538 51.6663 52.381V46.0952H77.6363L82.1469 51.7671C82.801 52.561 83.84 52.5498 84.4828 51.7415C85.1255 50.9333 85.1345 49.6269 84.5031 48.8043L82.3487 46.0952H91.6563C93.866 45.9796 95.8561 47.7639 96.4882 50.4279C93.7431 50.9466 91.1958 52.5293 89.2 54.956V54.956Z" fill="#0783F7"/>
</svg>
