<svg width="100" height="88" viewBox="0 0 100 88" fill="none" xmlns="http://www.w3.org/2000/svg">
<path d="M96.6667 40V16.4464L73.3333 8.9792V40H70V4.8H30V40H26.6667V20.8H23.3333V9.6H16.6667V0H13.3333V9.6H6.66667V20.8H3.33333V40H0V84.8H30V88H70V84.8H100V40H96.6667ZM10 12.8H20V20.8H10V12.8ZM6.66667 24H23.3333V40H6.66667V24ZM30 81.6H3.33333V43.2H30V81.6ZM53.3333 84.8H46.6667V68.8H53.3333V84.8ZM66.6667 84.8H56.6667V65.6H43.3333V84.8H33.3333V8H66.6667V84.8ZM76.6667 13.4208L93.3333 18.7536V40H90V20.8H86.6667V40H83.3333V20.8H80V40H76.6667V13.4208ZM86.6667 81.6H80V75.2H86.6667V81.6ZM96.6667 81.6H90V72H76.6667V81.6H70V43.2H96.6667V81.6Z" fill="#0783F7"/>
<path d="M26.6667 46.4H6.66675V49.6H26.6667V46.4Z" fill="#0783F7"/>
<path d="M26.6667 52.8H6.66675V56H26.6667V52.8Z" fill="#0783F7"/>
<path d="M26.6667 59.2H6.66675V62.4H26.6667V59.2Z" fill="#0783F7"/>
<path d="M26.6667 65.6H6.66675V68.8H26.6667V65.6Z" fill="#0783F7"/>
<path d="M38.3333 14.4V24H48.3333V14.4H38.3333ZM44.9999 20.8H41.6666V17.6H44.9999V20.8Z" fill="#0783F7"/>
<path d="M51.6667 14.4V24H61.6667V14.4H51.6667ZM58.3334 20.8H55.0001V17.6H58.3334V20.8Z" fill="#0783F7"/>
<path d="M38.3333 27.2V36.8H48.3333V27.2H38.3333ZM44.9999 33.6H41.6666V30.4H44.9999V33.6Z" fill="#0783F7"/>
<path d="M51.6667 27.2V36.8H61.6667V27.2H51.6667ZM58.3334 33.6H55.0001V30.4H58.3334V33.6Z" fill="#0783F7"/>
<path d="M38.3333 40V49.6H48.3333V40H38.3333ZM44.9999 46.4H41.6666V43.2H44.9999V46.4Z" fill="#0783F7"/>
<path d="M51.6667 40V49.6H61.6667V40H51.6667ZM58.3334 46.4H55.0001V43.2H58.3334V46.4Z" fill="#0783F7"/>
<path d="M38.3333 52.8V62.4H48.3333V52.8H38.3333ZM44.9999 59.2H41.6666V56H44.9999V59.2Z" fill="#0783F7"/>
<path d="M51.6667 52.8V62.4H61.6667V52.8H51.6667ZM58.3334 59.2H55.0001V56H58.3334V59.2Z" fill="#0783F7"/>
<path d="M76.6666 46.4H73.3333V49.6H76.6666V46.4Z" fill="#0783F7"/>
<path d="M86.6667 46.4H80V49.6H86.6667V46.4Z" fill="#0783F7"/>
<path d="M93.3333 46.4H90V49.6H93.3333V46.4Z" fill="#0783F7"/>
<path d="M76.6666 52.8H73.3333V56H76.6666V52.8Z" fill="#0783F7"/>
<path d="M86.6667 52.8H80V56H86.6667V52.8Z" fill="#0783F7"/>
<path d="M93.3333 52.8H90V56H93.3333V52.8Z" fill="#0783F7"/>
<path d="M76.6666 59.2H73.3333V62.4H76.6666V59.2Z" fill="#0783F7"/>
<path d="M86.6667 59.2H80V62.4H86.6667V59.2Z" fill="#0783F7"/>
<path d="M93.3333 59.2H90V62.4H93.3333V59.2Z" fill="#0783F7"/>
<path d="M76.6666 65.6H73.3333V68.8H76.6666V65.6Z" fill="#0783F7"/>
<path d="M86.6667 65.6H80V68.8H86.6667V65.6Z" fill="#0783F7"/>
<path d="M93.3333 65.6H90V68.8H93.3333V65.6Z" fill="#0783F7"/>
</svg>
