<svg width="100" height="88" viewBox="0 0 100 88" fill="none" xmlns="http://www.w3.org/2000/svg">
<path d="M89.5822 42.6759H88.5811L88.3848 42.5181L87.3445 36.1367C89.5724 33.1685 91.0739 28.5784 91.2138 23.4343C91.2236 23.0209 91.253 22.6678 91.3021 22.3549L91.3585 21.9875C91.4101 21.6574 91.4837 21.333 91.5696 21.0115C92.0136 19.3723 92.838 15.2501 90.9022 12.414C88.5541 8.97213 81.8412 6.12448 75.349 9.72997C72.9961 11.0361 71.4847 12.8675 70.8639 15.1784C69.934 18.6375 71.438 21.7894 71.5043 21.9243L71.7987 22.53L71.8036 22.7137C71.8036 27.545 73.1703 32.58 75.4889 35.887L74.6424 42.3056L74.1811 42.6817H73.4451C70.6112 42.6817 67.9589 43.9936 65.9789 46.3733L65.3753 47.0996C64.384 46.8584 63.356 46.7321 62.3034 46.7321H58.893L57.9557 40.988L55.0728 41.631L55.9045 46.7321H53.6153H46.3969H44.071L45.0205 39.5298C46.5589 40.7383 48.2469 41.4129 50.0061 41.4129C56.7117 41.4129 62.4801 31.3973 62.6003 19.5417C62.6003 19.4097 62.6101 19.2776 62.6297 19.1484L62.8604 17.6557C62.8898 17.4634 62.9315 17.2768 62.9855 17.0902C63.486 15.3851 64.9189 9.51754 62.2813 5.65657C59.2119 1.16981 50.4282 -2.52466 41.8996 2.20323C38.8571 3.89115 36.909 6.24505 36.1165 9.19603C34.9265 13.611 36.8526 17.6471 36.936 17.8165L37.2304 18.4222L37.4046 18.4825V19.1829C37.4046 26.2532 39.3896 32.6776 42.4099 36.7826L41.0972 46.735H37.704C36.6538 46.735 35.6258 46.8613 34.6345 47.1024L34.0408 46.3876C33.8739 46.1867 33.7022 45.9944 33.5231 45.8078C32.9171 45.1734 32.2497 44.6194 31.5381 44.1658C30.0194 43.1984 28.2945 42.6874 26.5549 42.6874H25.5637L25.3625 42.5267L24.2829 35.9099L24.1505 35.9386C26.4887 32.6346 27.8676 27.5737 27.8676 22.7195V22.5358L28.1669 21.9301C28.2307 21.798 29.7372 18.6432 28.8073 15.1899C28.1866 12.8819 26.6752 11.0476 24.3222 9.74145C17.8227 6.13022 11.1122 8.97787 8.76414 12.4197C6.82828 15.2559 7.65267 19.3752 8.09677 21.0115C8.18264 21.333 8.2587 21.6574 8.30778 21.9875L8.36421 22.3606C8.41328 22.6735 8.44272 23.0266 8.45254 23.44C8.59239 28.653 10.1357 33.2977 12.4101 36.2601L11.6152 42.3056L11.1539 42.6817H10.4203C4.67404 42.6817 0 48.1445 0 54.8617V70.9285H18.8409V67.4952H2.93447V54.8617C2.93447 50.0391 6.2934 46.1149 10.4203 46.1149H10.8595L13.2713 50.1568C14.4368 52.1116 16.3506 53.28 18.3895 53.28C20.4505 53.28 22.3741 52.0915 23.5395 50.1051L25.8753 46.1178H26.5574C27.8087 46.1178 29.0453 46.4853 30.1347 47.1799C30.623 47.49 31.0818 47.866 31.4989 48.2937C26.2556 51.0696 22.5973 57.2472 22.5973 64.4065V88H77.4076V64.4065C77.4076 57.2472 73.7518 51.0696 68.5085 48.2937C69.8751 46.8843 71.6073 46.1178 73.4451 46.1178H73.8867L76.2986 50.1596C77.4665 52.1145 79.3802 53.2829 81.4167 53.2829C83.4777 53.2829 85.4013 52.0944 86.5667 50.108L88.905 46.1149H89.5871C93.7115 46.1149 97.068 50.0419 97.068 54.8674L97.0655 67.4981H81.1664V70.9314H97.0655H100V54.8646C99.9975 48.1445 95.326 42.6759 89.5822 42.6759ZM56.8589 12.3508C55.058 11.659 53.4485 12.658 51.7482 13.7144C49.1744 15.3133 45.678 17.4864 39.2522 15.52C38.8988 14.5153 38.337 12.3824 38.916 10.2266C39.4558 8.2229 40.8838 6.56943 43.1582 5.30636C50.4625 1.25593 57.8821 4.72362 59.9823 7.80092C61.7268 10.3586 60.473 15.0607 60.2032 15.9793C60.1001 16.3324 60.024 16.6855 59.9652 17.05L59.7345 18.5427C59.6855 18.8614 59.6609 19.1829 59.6585 19.5044C59.5579 29.3477 55.0433 37.9825 49.9988 37.9825C44.9665 37.9825 40.3808 29.1094 40.3366 19.3264C46.7478 20.7158 50.5238 18.3648 53.1222 16.7515C54.5305 15.8759 55.3574 15.3908 55.9389 15.6176L57.3325 16.1544L58.2501 12.8934L56.8589 12.3508ZM11.2545 21.7521L11.1981 21.3789C11.1294 20.934 11.0312 20.4775 10.8963 19.9752C10.4105 18.1839 10.1995 15.8185 11.0582 14.5583C12.0593 13.0915 14.7754 11.5069 18.0362 11.5069C19.6261 11.5069 21.346 11.8829 23.0611 12.8331C24.6387 13.7086 25.6251 14.8339 25.998 16.1831C26.3685 17.5294 26.074 18.8757 25.8361 19.6221C22.0747 20.7359 20.0285 19.8374 18.2128 19.0365C17.1799 18.5801 14.9692 18.1523 13.8577 18.1724L12.3905 18.204L12.442 21.6373L13.9093 21.6057C14.4736 21.5942 15.1213 21.8841 15.9506 22.2487C17.7098 23.0238 21.2405 24.04 24.9209 23.3539C24.7344 30.1544 21.5914 36.1941 18.1539 36.1941C14.7337 36.1941 11.571 30.1831 11.387 23.3309C11.3723 22.7453 11.3281 22.2286 11.2545 21.7521ZM21.1154 48.1646C20.4995 49.2181 19.4789 49.8467 18.387 49.8467C17.3075 49.8467 16.2941 49.2295 15.6758 48.1933L14.1006 45.5523L14.1546 45.5609L15.0575 38.7145C16.0341 39.3059 17.0768 39.6302 18.1539 39.6302C19.4396 39.6302 20.6296 39.2025 21.7067 38.4475L22.8182 45.2566L21.1154 48.1646ZM48.6002 56.9084H51.4096L53.4215 69.0109L50.0037 72.3667L46.5859 69.0109L48.6002 56.9084ZM51.7727 50.1654L51.1299 53.4752H48.7156L48.1709 50.1654H51.7727ZM74.4706 64.4065V84.5667H25.5318V64.4065C25.5318 56.5553 30.9935 50.1654 37.704 50.1654H45.1824L45.9553 54.8617L43.3791 70.3429L50.0061 76.8477L56.6332 70.3429L53.9711 54.3335L54.7832 50.1654H62.301C69.0115 50.1654 74.4706 56.5525 74.4706 64.4065ZM86.4907 16.806L85.0455 17.1103C84.2187 17.2825 83.4458 17.7648 82.6288 18.2729C80.7003 19.4728 78.3227 20.9512 73.8303 19.6278C73.5947 18.8872 73.3027 17.5581 73.6634 16.2147C74.029 14.854 75.0202 13.7172 76.6077 12.836C81.8363 9.93378 87.1212 12.3767 88.6105 14.5612C89.4693 15.8214 89.2583 18.1839 88.7725 19.978C88.64 20.4718 88.5394 20.9311 88.4707 21.3818L88.4143 21.7492C88.3407 22.2286 88.2965 22.7453 88.2818 23.328C88.0978 30.1802 84.9351 36.1912 81.5148 36.1912C78.0749 36.1912 74.9344 30.1486 74.7479 23.3481C79.3434 24.2064 82.0963 22.4898 84.0077 21.3014C84.6431 20.9052 85.1927 20.5636 85.5657 20.4861L87.0108 20.1819L86.4907 16.806ZM84.1426 48.1646C83.5268 49.2181 82.5061 49.8467 81.4142 49.8467C80.3347 49.8467 79.3213 49.2295 78.703 48.1933L77.1279 45.5523L77.1843 45.5609L78.1093 38.5451C79.1471 39.237 80.2905 39.6274 81.5173 39.6274C82.6508 39.6274 83.7451 39.2714 84.7658 38.6169L85.8478 45.2538L84.1426 48.1646Z" fill="#0783F7"/>
</svg>
