<?xml version="1.0" encoding="utf-8"?>
<!-- Generator: Adobe Illustrator 22.0.0, SVG Export Plug-In . SVG Version: 6.00 Build 0)  -->
<svg version="1.0" id="Layer_1" xmlns="http://www.w3.org/2000/svg" xmlns:xlink="http://www.w3.org/1999/xlink" x="0px" y="0px"
	 viewBox="0 0 4229 3274" style="enable-background:new 0 0 4229 3274;" xml:space="preserve">
<style type="text/css">
	.st0{fill:#1B75BC;}
</style>
<path class="st0" d="M3727.8,1590.9h-40.8l-8-5.5l-42.4-222.3c90.8-103.4,152-263.3,157.7-442.5c0.4-14.4,1.6-26.7,3.6-37.6
	l2.3-12.8c2.1-11.5,5.1-22.8,8.6-34c18.1-57.1,51.7-200.7-27.2-299.5c-95.7-119.9-369.3-219.1-633.9-93.5
	c-95.9,45.5-157.5,109.3-182.8,189.8C2927,753.5,2988.3,863.3,2991,868l12,21.1l0.2,6.4c0,168.3,55.7,343.7,150.2,458.9l-34.5,223.6
	l-18.8,13.1h-30c-115.5,0-223.6,45.7-304.3,128.6l-24.6,25.3c-40.4-8.4-82.3-12.8-125.2-12.8h-139l-38.2-200.1l-117.5,22.4
	l33.9,177.7h-93.3h-294.2h-94.8l38.7-250.9c62.7,42.1,131.5,65.6,203.2,65.6c273.3,0,508.4-348.9,513.3-761.9
	c0-4.6,0.4-9.2,1.2-13.7l9.4-52c1.2-6.7,2.9-13.2,5.1-19.7c20.4-59.4,78.8-263.8-28.7-398.3C2490,145,2132,16.3,1784.4,181
	c-124,58.8-203.4,140.8-235.7,243.6c-48.5,153.8,30,294.4,33.4,300.3l12,21.1l7.1,2.1v24.4c0,246.3,80.9,470.1,204,613.1
	l-53.5,346.7h-138.3c-42.8,0-84.7,4.4-125.1,12.8l-24.2-24.9c-6.8-7-13.8-13.7-21.1-20.2c-24.7-22.1-51.9-41.4-80.9-57.2
	c-61.9-33.7-132.2-51.5-203.1-51.5h-40.4l-8.2-5.6l-44-230.5l-5.4,1c95.3-115.1,151.5-291.4,151.5-460.5v-6.4l12.2-21.1
	c2.6-4.6,64-114.5,26.1-234.8c-25.3-80.4-86.9-144.3-182.8-189.8C803.1,317.8,529.6,417,433.9,536.9
	c-78.9,98.8-45.3,242.3-27.2,299.3c3.5,11.2,6.6,22.5,8.6,34l2.3,13c2,10.9,3.2,23.2,3.6,37.6c5.7,181.6,68.6,343.4,161.3,446.6
	L550.1,1578l-18.8,13.1h-29.9c-234.2,0-424.7,190.3-424.7,424.3v559.7h767.9v-119.6H196.3v-440.1c0-168,136.9-304.7,305.1-304.7
	h17.9l98.3,140.8c47.5,68.1,125.5,108.8,208.6,108.8c84,0,162.4-41.4,209.9-110.6l95.2-138.9h27.8c51,0,101.4,12.8,145.8,37
	c19.9,10.8,38.6,23.9,55.6,38.8c-213.7,96.7-362.8,311.9-362.8,561.3v821.9h2233.9v-821.9c0-249.4-149-464.6-362.7-561.3
	c55.7-49.1,126.3-75.8,201.2-75.8h18l98.3,140.8c47.6,68.1,125.6,108.8,208.6,108.8c84,0,162.4-41.4,209.9-110.6l95.3-139.1h27.8
	c168.1,0,304.9,136.8,304.9,304.9l-0.1,440h-648v119.6h648l119.6,0l0-559.7C4152.3,1781.4,3961.9,1590.9,3727.8,1590.9z
	 M2394.1,534.5c-73.4-24.1-139,10.7-208.3,47.5c-104.9,55.7-247.4,131.4-509.3,62.9c-14.4-35-37.3-109.3-13.7-184.4
	c22-69.8,80.2-127.4,172.9-171.4c297.7-141.1,600.1-20.3,685.7,86.9c71.1,89.1,20,252.9,9,284.9c-4.2,12.3-7.3,24.6-9.7,37.3
	l-9.4,52c-2,11.1-3,22.3-3.1,33.5c-4.1,342.9-188.1,643.7-393.7,643.7c-205.1,0-392-309.1-393.8-649.9
	c261.3,48.4,415.2-33.5,521.1-89.7c57.4-30.5,91.1-47.4,114.8-39.5l56.8,18.7l37.4-113.6L2394.1,534.5z M535.4,862l-2.3-13
	c-2.8-15.5-6.8-31.4-12.3-48.9c-19.8-62.4-28.4-144.8,6.6-188.7c40.8-51.1,151.5-106.3,284.4-106.3c64.8,0,134.9,13.1,204.8,46.2
	c64.3,30.5,104.5,69.7,119.7,116.7c15.1,46.9,3.1,93.8-6.6,119.8C976.4,826.6,893,795.3,819,767.4c-42.1-15.9-132.2-30.8-177.5-30.1
	l-59.8,1.1l2.1,119.6l59.8-1.1c23-0.4,49.4,9.7,83.2,22.4c71.7,27,215.6,62.4,365.6,38.5c-7.6,236.9-135.7,447.3-275.8,447.3
	c-139.4,0-268.3-209.4-275.8-448.1C540.2,896.6,538.4,878.6,535.4,862z M937.3,1782.1c-25.1,36.7-66.7,58.6-111.2,58.6
	c-44,0-85.3-21.5-110.5-57.6l-64.2-92l2.2,0.3l36.8-238.5c39.8,20.6,82.3,31.9,126.2,31.9c52.4,0,100.9-14.9,144.8-41.2l45.3,237.2
	L937.3,1782.1z M2057.5,2086.7H2172l82,421.6l-139.3,116.9l-139.3-116.9L2057.5,2086.7z M2186.8,1851.8l-26.2,115.3h-98.4
	l-22.2-115.3H2186.8z M3111.9,2347.9v702.3H1117.3v-702.3c0-273.5,222.6-496.1,496.1-496.1h304.8l31.5,163.6l-105,539.3l270.1,226.6
	l270.1-226.6L2276.4,1997l33.1-145.2h306.4C2889.4,1851.8,3111.9,2074.3,3111.9,2347.9z M3601.8,689.7l-58.9,10.6
	c-33.7,6-65.2,22.8-98.5,40.5c-78.6,41.8-175.5,93.3-358.6,47.2c-9.6-25.8-21.5-72.1-6.8-118.9c14.9-47.4,55.3-87,120-117.7
	c213.1-101.1,428.5-16,489.2,60.1c35,43.9,26.4,126.2,6.6,188.7c-5.4,17.2-9.5,33.2-12.3,48.9l-2.3,12.8c-3,16.7-4.8,34.7-5.4,55
	c-7.5,238.7-136.4,448.1-275.8,448.1c-140.2,0-268.2-210.5-275.8-447.4c187.3,29.9,299.5-29.9,377.4-71.3
	c25.9-13.8,48.3-25.7,63.5-28.4l58.9-10.6L3601.8,689.7z M3506.1,1782.1c-25.1,36.7-66.7,58.6-111.2,58.6
	c-44,0-85.3-21.5-110.5-57.6l-64.2-92l2.3,0.3l37.7-244.4c42.3,24.1,88.9,37.7,138.9,37.7c46.2,0,90.8-12.4,132.4-35.2l44.1,231.2
	L3506.1,1782.1z"/>
</svg>
